<svg xmlns="http://www.w3.org/2000/svg" width="19.906" height="19.905" viewBox="0 0 19.906 19.905">
  <path id="Icon_ionic-ios-color-palette" data-name="Icon ionic-ios-color-palette" d="M22.523,18.477a2.3,2.3,0,0,0-1.211-.443,1.8,1.8,0,0,1-1.113-.492,1.365,1.365,0,0,1,0-2.156l1.492-1.324a4.793,4.793,0,0,0,0-7.345A9.465,9.465,0,0,0,15.4,4.5,11.9,11.9,0,0,0,7.581,7.459a8.626,8.626,0,0,0,0,13.219,11.526,11.526,0,0,0,7.528,2.727h.084a11.08,11.08,0,0,0,7.326-2.58A1.662,1.662,0,0,0,22.523,18.477ZM7.256,11.983a1.575,1.575,0,1,1,1.575,1.575A1.574,1.574,0,0,1,7.256,11.983Zm1.969,6.2A1.575,1.575,0,1,1,10.8,16.611,1.574,1.574,0,0,1,9.226,18.187Zm3.151-7.926a1.575,1.575,0,1,1,1.575-1.575A1.574,1.574,0,0,1,12.377,10.26Zm3.545,10.782a2.363,2.363,0,1,1,2.363-2.363A2.364,2.364,0,0,1,15.921,21.042ZM17.1,10.8a1.575,1.575,0,1,1,1.575-1.575A1.574,1.574,0,0,1,17.1,10.8Z" transform="translate(-3.998 -4)" fill="none" stroke="#353e3b" stroke-width="1"/>
</svg>
