<svg xmlns="http://www.w3.org/2000/svg" width="70.771" height="70.771" viewBox="0 0 70.771 70.771"><path d="M-425.535,264.2a5.491,5.491,0,0,0-7.5-3.505,1.273,1.273,0,0,1-.885.066c-3.985-1.666-7.956-3.362-11.932-5.051-.1-.043-.2-.1-.357-.178.274-.669.539-1.319.825-2.017-1.406-.6-2.749-1.187-4.109-1.735a.976.976,0,0,1-.727-.922c-.171-1.739-.4-3.472-.651-5.2a1.013,1.013,0,0,0-.5-.677c-3.627-1.569-7.267-3.106-10.9-4.647a5.466,5.466,0,0,0-.6-.177V237H-485v22.133h13.507a2.639,2.639,0,0,1,.058.446c-.036.759.377,1.088,1.052,1.366,3.422,1.41,6.827,2.867,10.223,4.339a1,1,0,0,0,1.172-.163c1.3-1.021,2.653-1.989,3.957-3.012a1.033,1.033,0,0,1,1.233-.162c1.334.614,2.7,1.161,4.1,1.757.3-.683.576-1.326.871-2,.265.1.478.178.687.265,3.558,1.507,7.109,3.027,10.677,4.512.786.326,1.5.646,1.673,1.6.043.235.275.43.348.666a1.946,1.946,0,0,1,.152.95q-2.944,11.746-5.951,23.475a1.166,1.166,0,0,1-.56.668,5.506,5.506,0,0,0-3.388,5.248c-.021,1.912,0,3.823,0,5.736v.771h-4.285v2.181h19.766v-2.2h-4.423c0-1.791-.017-3.511.006-5.23a7.6,7.6,0,0,0-.824-4.337,1.082,1.082,0,0,1,.022-.72q3.025-11.957,6.076-23.91a1.071,1.071,0,0,1,.434-.632,5.57,5.57,0,0,0,3.029-4.046,1.307,1.307,0,0,1,.1-.252V265.06C-425.37,264.775-425.451,264.489-425.535,264.2Zm-45.1-15.067h-6.674a20.84,20.84,0,0,1,.2-3.062,3.213,3.213,0,0,1,3.532-2.424,3.315,3.315,0,0,1,2.933,3.077C-470.6,247.505-470.633,248.286-470.633,249.138Zm-3.63-7.7a5.444,5.444,0,0,0-5.165,5.029c-.123,2.481-.037,4.972-.043,7.459v.744h2.187v-3.234h4.854c.22,1.769.444,3.562.676,5.417h-10.99v-17.6h17.614v16.482l-.07.007c-.08-.634-.124-1.276-.26-1.9-.052-.241-.311-.435-.482-.647-.025-.03-.086-.03-.127-.05-.77-.348-1.84-.5-2.225-1.1s-.1-1.646-.119-2.5a27.59,27.59,0,0,0-.14-3.648A5.419,5.419,0,0,0-474.263,241.433Zm19.385,17.494a1.83,1.83,0,0,1-.525.693c-1.349,1.041-2.706,2.072-4.09,3.064a1.015,1.015,0,0,1-.84.083q-4.207-1.74-8.383-3.551c-.223-.1-.52-.314-.549-.509-.231-1.543-.406-3.095-.614-4.776.771.325,1.4.552,1.985.857a.827.827,0,0,1,.409.615c-.138,1.653.708,2.436,2.206,2.91a41.988,41.988,0,0,1,4.133,1.731.666.666,0,0,0,.894-.142c1.417-1.482,2.875-2.923,4.292-4.405a1.4,1.4,0,0,0,.346-.843c.082-2.026.108-4.053.187-6.078a.68.68,0,0,0-.51-.76c-1.891-.784-3.762-1.617-5.669-2.357-.335-.13-.807.1-1.276.17,0-.688-.026-1.485.01-2.278.023-.5.456-.658,1.031-.416,2.647,1.118,5.28,2.274,7.948,3.341a1.521,1.521,0,0,1,1.1,1.487c.12,1.468.357,2.925.51,4.389a2.155,2.155,0,0,1-.14,1Q-453.622,256.05-454.878,258.927Zm-8-9.781a1.281,1.281,0,0,1,1.706-1.127c1.017.426,2.043.836,3.041,1.3a.864.864,0,0,1,.417.639q.017,1.9-.084,3.8a1.444,1.444,0,0,1-.362.829c-.831.894-1.72,1.733-2.546,2.63a.739.739,0,0,1-1.008.187c-1.156-.521-1.165-.5-1.165-1.768v-2.9C-462.884,251.541-462.888,250.344-462.883,249.146Zm12.023,11.661-2.028-.872c.863-2.037,1.708-4.032,2.581-6.092l2.036.846Zm14.558,3.775-11.65-4.951.864-2.035,11.687,4.964C-435.714,263.26-436,263.9-436.3,264.582Zm-.043,40.952h-6.586c-.017-.184-.046-.359-.046-.535,0-1.977-.01-3.953,0-5.93a3.325,3.325,0,0,1,3.34-3.46,3.319,3.319,0,0,1,3.29,3.44C-436.336,301.185-436.345,303.321-436.345,305.534Zm-.56-11.46-2.1-.686q2.865-11.3,5.739-22.629c.76.2,1.421.382,2.136.575Q-434.017,282.7-436.9,294.073Zm6.061-25.008a3.324,3.324,0,0,1-3.287-3.377,3.324,3.324,0,0,1,3.342-3.254,3.325,3.325,0,0,1,3.287,3.377A3.326,3.326,0,0,1-430.843,269.066Z" transform="translate(496.058 -237)" fill="#0095ff"/><path d="M-542.892,464.888V445H-565v42.021h42.021V464.888Zm-2.259,19.873h-17.606V467.152h17.606Zm-16.805-19.9,2.484-4.357c.865,1.514,1.657,2.9,2.491,4.357Zm10.8.029,1.927-1.643,2.069,1.643Zm6.01-1.225-4.479-3.572-4.777,4.816c-1.693-2.958-3.344-5.844-5.067-8.857-1.1,1.916-2.143,3.733-3.275,5.707V447.268h17.6Zm19.906,21.117h-17.609V467.171h17.609Z" transform="translate(565 -416.249)" fill="#353e3b"/><rect width="2.13" height="10.97" transform="translate(2.259 8.88)" fill="#353e3b"/><path d="M-326.136,444.794c-1.435,1.081-2.839,2.145-4.256,3.194a.517.517,0,0,1-.43.035c-1.733-.719-3.461-1.454-5.248-2.21l.857-2.033c1.259.532,2.471,1.008,3.649,1.559a1.071,1.071,0,0,0,1.29-.177c.907-.73,1.854-1.41,2.81-2.131Z" transform="translate(367.714 -414.551)" fill="#353e3b"/><rect width="2.133" height="8.751" transform="translate(6.68 6.676)" fill="#353e3b"/><path d="M-242.088,266.472c-.774.094-1.451.177-2.191.265-.12-1-.2-1.956-.372-2.9a1.163,1.163,0,0,0-.538-.742c-.925-.453-1.888-.827-2.9-1.258.286-.673.561-1.317.864-2.029,1.465.622,2.9,1.221,4.315,1.845a.613.613,0,0,1,.275.424C-242.445,263.51-242.276,264.945-242.088,266.472Z" transform="translate(291.895 -256.657)" fill="#353e3b"/><rect width="2.127" height="2.138" transform="translate(55.326 61.955)" fill="#0095ff"/><rect width="2.127" height="2.125" transform="translate(64.192 27.695)" fill="#0095ff"/><rect width="13.183" height="2.127" transform="translate(24.358 54.22)" fill="#0095ff"/><rect width="13.183" height="2.131" transform="translate(24.382 58.653)" fill="#0095ff"/><rect width="6.571" height="2.102" transform="translate(24.344 63.082)" fill="#0095ff"/><path d="M-496.513,477.009a4.428,4.428,0,0,0-4.467,4.391,4.43,4.43,0,0,0,4.407,4.451,4.428,4.428,0,0,0,4.434-4.425A4.428,4.428,0,0,0-496.513,477.009Zm-.062,6.631a2.227,2.227,0,0,1-2.194-2.277,2.217,2.217,0,0,1,2.257-2.142,2.229,2.229,0,0,1,2.16,2.242A2.225,2.225,0,0,1-496.575,483.64Z" transform="translate(509.83 -443.833)" fill="#0095ff"/><path d="M-532.61,621.35v6.61h3.276v6.562h6.635V627.91h3.261v-6.56Zm10.972,4.353h-3.251v6.609h-2.235v-6.563H-530.4V623.56h8.761Z" transform="translate(537.087 -568.223)" fill="#0095ff"/></svg>