<svg xmlns="http://www.w3.org/2000/svg" xmlns:xlink="http://www.w3.org/1999/xlink" width="38" height="38" viewBox="0 0 38 38"><defs><filter id="a" x="0" y="0" width="38" height="38" filterUnits="userSpaceOnUse"><feOffset dy="3" input="SourceAlpha"/><feGaussianBlur stdDeviation="3" result="b"/><feFlood flood-opacity="0.161"/><feComposite operator="in" in2="b"/><feComposite in="SourceGraphic"/></filter></defs><g transform="translate(8.83 6.194)"><g transform="matrix(1, 0, 0, 1, -8.83, -6.19)" filter="url(#a)"><rect width="20" height="20" rx="2" transform="translate(9 6)" fill="#fff"/></g><path d="M4.622,0H6.334a.512.512,0,0,1,.514.514V4.108H8.724a.427.427,0,0,1,.3.73L5.771,8.094a.415.415,0,0,1-.584,0L1.928,4.838a.427.427,0,0,1,.3-.73H4.108V.514A.512.512,0,0,1,4.622,0Zm6.334,8.045v2.4a.512.512,0,0,1-.514.514H.514A.512.512,0,0,1,0,10.442v-2.4a.512.512,0,0,1,.514-.514H3.652L4.7,8.58a1.1,1.1,0,0,0,1.553,0L7.3,7.532h3.139A.512.512,0,0,1,10.955,8.045ZM8.3,9.928a.428.428,0,1,0-.428.428A.429.429,0,0,0,8.3,9.928Zm1.369,0a.428.428,0,1,0-.428.428A.429.429,0,0,0,9.671,9.928Z" transform="translate(4.592 4.565)" fill="none" stroke="#353e3b" stroke-width="0.5"/></g></svg>