<svg xmlns="http://www.w3.org/2000/svg" xmlns:xlink="http://www.w3.org/1999/xlink" width="36" height="37" viewBox="0 0 36 37"><defs><filter id="a" x="0" y="0" width="36" height="37" filterUnits="userSpaceOnUse"><feOffset dy="3" input="SourceAlpha"/><feGaussianBlur stdDeviation="1.5" result="b"/><feFlood flood-opacity="0.102"/><feComposite operator="in" in2="b"/><feComposite in="SourceGraphic"/></filter></defs><g transform="translate(4.365 1.975)"><g transform="matrix(1, 0, 0, 1, -4.36, -1.97)" filter="url(#a)"><ellipse cx="13.5" cy="14" rx="13.5" ry="14" transform="translate(4.5 1.5)" fill="#fff"/></g><g transform="translate(6.293 6.295)"><path d="M-483.6-570.546c-.015.016-.051.058-.09.1q-4.349,4.348-8.7,8.693a.728.728,0,0,1-.318.183c-1.256.321-2.514.632-3.772.946a.744.744,0,0,0-.086.033h-.189l-.253-.252v-.221c.094-.347.192-.694.279-1.043.236-.936.465-1.874.7-2.81a.608.608,0,0,1,.153-.266q4.367-4.375,8.74-8.744c.029-.029.061-.057.078-.073Z" transform="translate(497.013 575.384)" fill="#858d97"/><path d="M-497.01-297.192l.252.252h-.252Z" transform="translate(497.01 311.731)" fill="#858d97"/><path d="M-261.144-627.655a2.261,2.261,0,0,1-.207.238c-.387.391-.777.779-1.16,1.161l-3.462-3.462c.311-.311.628-.632.949-.948a4.406,4.406,0,0,1,.452-.415,1.762,1.762,0,0,1,2.187.1c.4.368.792.755,1.158,1.16A1.716,1.716,0,0,1-261.144-627.655Z" transform="translate(275.607 631.414)" fill="#858d97"/></g></g></svg>