<svg xmlns="http://www.w3.org/2000/svg" width="15.573" height="15.573" viewBox="0 0 15.573 15.573"><g transform="translate(-4 -4)"><path d="M17.27,10.885A6.385,6.385,0,1,1,10.885,4.5,6.385,6.385,0,0,1,17.27,10.885Z" transform="translate(0 0)" fill="none" stroke="#000" stroke-linecap="round" stroke-linejoin="round" stroke-width="1"/><path d="M28.447,28.447l-3.472-3.472" transform="translate(-9.581 -9.581)" fill="none" stroke="#000" stroke-linecap="round" stroke-linejoin="round" stroke-width="1"/><path d="M14.636,11.612H12.365V9.341a.376.376,0,0,0-.753,0v2.271H9.341a.376.376,0,0,0,0,.753h2.271v2.271a.376.376,0,0,0,.753,0V12.365h2.271a.376.376,0,0,0,0-.753Z" transform="translate(-1.103 -1.104)" stroke="#000" stroke-width="0.3"/></g></svg>