<svg xmlns="http://www.w3.org/2000/svg" width="70.784" height="70.771" viewBox="0 0 70.784 70.771"><path d="M-755.4,1368.149a5.906,5.906,0,0,0-6.265-6.086q-25.843-.005-51.686,0c-2.188,0-4.376.03-6.564-.006a5.944,5.944,0,0,0-6.165,5,1.2,1.2,0,0,1-.094.255v42.568a6.54,6.54,0,0,0,1.795,3.571,6.171,6.171,0,0,0,4.466,1.684q9.295-.008,18.591,0h.866c-.652,3.571-1.289,7.075-1.937,10.626-1.56,0-3.08-.018-4.6.006a3.507,3.507,0,0,0-3.128,5.194,3.783,3.783,0,0,0,2.605,1.865h33.455a3.633,3.633,0,0,0,2.962-2.9,3.48,3.48,0,0,0-3.207-4.141c-1.357-.052-2.718-.017-4.077-.02-.251,0-.5,0-.8,0-.646-3.549-1.285-7.053-1.935-10.626h.86q9.331,0,18.658,0a5.716,5.716,0,0,0,5.571-3.361,6.59,6.59,0,0,0,.6-2.725Q-755.361,1388.6-755.4,1368.149Zm-68.418,34.387q0-17.033,0-34.066c0-2.64,1.412-4.053,4.051-4.053q28.995,0,57.986,0c2.6,0,4.031,1.42,4.031,4q0,17.066,0,34.134v.755h-66.069Zm48.721,25.582c1.15,0,1.7.362,1.723,1.134s-.589,1.22-1.721,1.22h-31.376c-.114,0-.231,0-.345,0-.835-.026-1.4-.524-1.377-1.22s.543-1.13,1.375-1.132q7.085-.006,14.167,0a6.131,6.131,0,0,0,.69-.013,1.214,1.214,0,0,0,1.165-1.219,1.173,1.173,0,0,0-1.252-1.117c-.99-.02-1.981-.008-2.973-.008h-4.965c.652-3.589,1.283-7.068,1.922-10.583H-783.5c.637,3.5,1.272,7,1.922,10.587-1.156,0-2.21-.016-3.264.006a1.169,1.169,0,0,0-1.208,1.095,1.208,1.208,0,0,0,1.078,1.226,4.511,4.511,0,0,0,.689.024Q-779.687,1428.119-775.093,1428.118Zm17.142-17.867a3.283,3.283,0,0,1-3.113,2.511c-.3.026-.6.018-.9.018q-28.82,0-57.639,0c-2.867,0-4.213-1.355-4.213-4.239v-2.814h66.139A38.786,38.786,0,0,1-757.951,1410.25Z" transform="translate(826.17 -1362.055)" fill="#353e3b"/><path d="M-711.8,1426.661a3.57,3.57,0,0,0-.89-.083c-.615-.011-1.232,0-1.832,0,2.823-9.749.6-17.943-7.8-23.686-7.077-4.832-14.8-4.88-21.93-.1-8.543,5.724-10.805,13.957-7.976,23.789-.327,0-.668-.005-1.006,0-.506.009-1.016,0-1.518.05a1.07,1.07,0,0,0-1.008,1.117,1.105,1.105,0,0,0,.979,1.145,4.92,4.92,0,0,0,.825.052q20.592,0,41.182,0a3.951,3.951,0,0,0,.958-.081,1.06,1.06,0,0,0,.835-1.124A1.06,1.06,0,0,0-711.8,1426.661Zm-21.571-.107a2.327,2.327,0,0,1-2.352-2.3,2.387,2.387,0,0,1,2.347-2.4,2.369,2.369,0,0,1,2.349,2.321A2.323,2.323,0,0,1-733.375,1426.554Zm1.329-7c1.68-1.562,3.44-3.2,5.2-4.834l.109.078c-.919,2.188-1.837,4.376-2.733,6.508Zm15.135,6.366a.852.852,0,0,1-1,.668c-.827-.048-1.658-.018-2.487-.026-.042,0-.085-.031-.061-.022.375-1.545.833-3.019,1.078-4.527a14,14,0,0,0-.476-6.283,1.165,1.165,0,0,0-1.422-.892,1.174,1.174,0,0,0-.829,1.57,12.392,12.392,0,0,1,.179,6.484,27.549,27.549,0,0,1-1.246,3.346.613.613,0,0,1-.452.321c-1.841.024-3.68.015-5.639.015.144-.349.251-.611.362-.873,1.8-4.23,3.617-8.455,5.4-12.692.312-.739.519-1.521.774-2.284a.965.965,0,0,0-.4-1.2.993.993,0,0,0-1.278,0c-.748.576-1.509,1.141-2.193,1.786q-4.985,4.683-9.924,9.415a4.623,4.623,0,0,0-1.113,5.5c.033.081.055.168.116.353h-2.029a26.775,26.775,0,0,0-2.694.02,1.474,1.474,0,0,1-1.713-1.041,13.253,13.253,0,0,1-.862-8.431c.028-.135.07-.268.087-.4a1.172,1.172,0,0,0-.9-1.409,1.163,1.163,0,0,0-1.4.931,15.327,15.327,0,0,0,.5,9.226c.127.338.253.676.414,1.1-1.126,0-2.158.018-3.189-.02-.151-.006-.36-.251-.43-.43a17.044,17.044,0,0,1,1.126-15.528,16.866,16.866,0,0,1,13.2-8.623,16.826,16.826,0,0,1,15.768,6.459C-715.448,1413.668-714.617,1419.578-716.91,1425.917Z" transform="translate(768.768 -1392.369)" fill="#0095ff"/><path d="M-646.525,1612.386a1.188,1.188,0,0,1-1.3,1.213c-.757.024-1.514.006-2.273.006-.711,0-1.423.017-2.134-.006a1.2,1.2,0,0,1-1.331-1.182c0-.7.508-1.156,1.335-1.163q2.2-.019,4.407,0A1.162,1.162,0,0,1-646.525,1612.386Z" transform="translate(685.43 -1565.234)"/><path d="M-662.936,1434.549c-.007.836-.759,1.3-1.684,1.071a28.615,28.615,0,0,0-3.072-.713,10.688,10.688,0,0,0-6.213,1.121c-.31.15-.606.331-.916.476a1.165,1.165,0,0,1-1.616-.421,1.155,1.155,0,0,1,.521-1.642,19.112,19.112,0,0,1,2.814-1.278,13.571,13.571,0,0,1,9.186.2A1.3,1.3,0,0,1-662.936,1434.549Z" transform="translate(704.214 -1419.459)" fill="#0095ff"/></svg>