<svg xmlns="http://www.w3.org/2000/svg" width="20.112" height="20.112" viewBox="0 0 20.112 20.112">
  <g id="Icon_feather-image" data-name="Icon feather-image" transform="translate(0.5 0.5)">
    <path id="Path_5" data-name="Path 5" d="M6.6,4.5H21.3a2.1,2.1,0,0,1,2.1,2.1V21.3a2.1,2.1,0,0,1-2.1,2.1H6.6a2.1,2.1,0,0,1-2.1-2.1V6.6A2.1,2.1,0,0,1,6.6,4.5Z" transform="translate(-4.5 -4.5)" fill="none" stroke="#353e3b" stroke-linecap="round" stroke-linejoin="round" stroke-width="1"/>
    <path id="Path_6" data-name="Path 6" d="M13.651,12.075A1.575,1.575,0,1,1,12.075,10.5,1.575,1.575,0,0,1,13.651,12.075Z" transform="translate(-6.299 -6.299)" fill="none" stroke="#353e3b" stroke-linecap="round" stroke-linejoin="round" stroke-width="1"/>
    <path id="Path_7" data-name="Path 7" d="M24.3,20.251,19.053,15,7.5,26.553" transform="translate(-5.399 -7.648)" fill="none" stroke="#353e3b" stroke-linecap="round" stroke-linejoin="round" stroke-width="1"/>
  </g>
</svg>
