<svg xmlns="http://www.w3.org/2000/svg" width="112.876" height="46.098" viewBox="0 0 112.876 46.098">
  <g id="Group_15205" data-name="Group 15205" transform="translate(-100 9)">
    <g id="Group_15206" data-name="Group 15206" transform="translate(30 -87)">
      <path id="Path_6519" data-name="Path 6519" d="M266.26,124.263c1.222,0,1.845.791,1.845,2.528,0,.168-.012.336-.024.515H263.4c.5-1.833,1.594-3.043,2.864-3.043m.024,9.071c-2.1.024-3.2-1.306-3.2-3.667,0-.156,0-.312.012-.467h8.22a7.669,7.669,0,0,0,.275-1.929c0-2.876-1.761-5.08-5.38-5.08-3.691,0-6.974,3.643-6.974,7.465,0,3.667,2.385,5.9,6.387,5.9a8.044,8.044,0,0,0,4.721-1.522l-.755-1.905A5.685,5.685,0,0,1,266.284,133.334Z" transform="translate(-102.004 -23.819)" fill="#0000c9"/>
      <path id="Path_6520" data-name="Path 6520" d="M173.48,119.023h-1.486l2.049-7.549H175.6a2.892,2.892,0,0,1,3.068,3.092c0,2.828-2.217,4.457-5.189,4.457m9.563-4.613c0-2.983-2.337-5.164-5.872-5.164h-6.842l-5.165,19.017h4.314l1.905-7.01h3.751C179.423,121.252,183.043,118.484,183.043,114.409Z" transform="translate(-51.296 -16.842)" fill="#0000c9"/>
      <path id="Path_6521" data-name="Path 6521" d="M203.109,110.205l.479-1.761c.24-.923.647-2.5,1.223-4.314.6-1.869,1.689-3.044,3.151-3.044.707,0,1.139.324,1.139.875-.024.6-.515.946-.515,1.905a2.05,2.05,0,0,0,2.169,1.977,2.731,2.731,0,0,0,2.744-2.72c0-2.313-1.977-3.834-5-3.834-4.422,0-7.333,2.828-9.155,9.419l-7.381,26.865h4.182l6.387-23.271h4.35L204.032,122.9h4.182l3.427-12.69h-8.532" transform="translate(-65.742 -11.475)" fill="#0000c9"/>
      <path id="Path_6522" data-name="Path 6522" d="M245.044,122.97H233.96l-.539,2.1h5.356l-8.316,10.593h11.731l.539-2.1h-6.039l8.352-10.592" transform="translate(-86.492 -24.24)" fill="#0000c9"/>
      <path id="Path_6523" data-name="Path 6523" d="M296.575,122.5c-1.5,0-3.091.97-4.35,2.984l.743-2.768h-4.182L285.359,135.4h4.182l1.546-5.7c.623-2.336,2.145-4.613,3.151-4.613,1.091,0,.683,2.037,2.552,2.037a2.291,2.291,0,0,0,2.169-2.385,2.235,2.235,0,0,0-2.385-2.229" transform="translate(-116.084 -23.988)" fill="#0000c9"/>
      <path id="Path_6524" data-name="Path 6524" d="M70.648,117.167c1.366-3.906,9.119-5.56,20.431-4.194l2.193-8.052c-11.192-1.426-19.364.18-20.73,5.272l-1.894,6.974" transform="translate(-0.349 -14.243)" fill="#0095ff"/>
      <path id="Path_6525" data-name="Path 6525" d="M132.834,113.9c-1.366,3.906-9.119,5.548-20.43,4.182l-2.193,8.052c11.192,1.426,19.364-.18,20.73-5.273l1.893-6.962" transform="translate(-21.675 -19.35)" fill="#0000c9"/>
      <path id="Path_6526" data-name="Path 6526" d="M86.195,86.052c16.524,1.186,33.408,9.359,31.814,15.458l1.486-5.452a14.029,14.029,0,0,0,.707-3.319c-.012-6.207-16.3-13.792-31.814-14.739l-2.193,8.052" transform="translate(-8.729)" fill="#0095ff"/>
      <path id="Path_6527" data-name="Path 6527" d="M104,132.4c-16.524-1.187-33.408-9.359-31.814-15.458l-1.474,5.452A14.617,14.617,0,0,0,70,125.7c0,6.231,16.284,13.8,31.814,14.751L104,132.4" transform="translate(0 -20.989)" fill="#0000c9"/>
    </g>
  </g>
</svg>
