<svg xmlns="http://www.w3.org/2000/svg" width="23.992" height="23.999" viewBox="0 0 23.992 23.999"><path d="M-1440.08,350.994a11.8,11.8,0,0,0-6.14-8.5,11.182,11.182,0,0,0-6.2-1.411,11.758,11.758,0,0,0-9.783,5.858,11.4,11.4,0,0,0-1.672,6.689,11.953,11.953,0,0,0,8.819,11c.724.2,1.486.264,2.23.392.077.012.152.028.228.042h1.406c.454-.061.913-.1,1.364-.186a11.817,11.817,0,0,0,8.279-5.752,11.445,11.445,0,0,0,1.61-5.153,1.58,1.58,0,0,1,.04-.2v-1.406C-1439.955,351.9-1440,351.444-1440.08,350.994Zm-11.945,9.1a1.345,1.345,0,0,1-1.389-1.389,1.382,1.382,0,0,1,1.434-1.382,1.357,1.357,0,0,1,1.358,1.4A1.339,1.339,0,0,1-1452.025,360.095Zm3.649-7.9c-.612.569-1.221,1.141-1.836,1.706a2.223,2.223,0,0,0-.7,1.265c-.025.138-.064.273-.1.409a1.042,1.042,0,0,1-1.176.9,1.091,1.091,0,0,1-1.052-1.108,3.241,3.241,0,0,1,.952-2.575c.559-.556,1.151-1.077,1.724-1.619a4.17,4.17,0,0,0,.409-.449,1.658,1.658,0,0,0-.833-2.6,2.456,2.456,0,0,0-1.871.082,1.933,1.933,0,0,0-.9,1.007c-.164.335-.285.691-.426,1.037a1.171,1.171,0,0,1-1.734.654,1.142,1.142,0,0,1-.611-1.1,3.652,3.652,0,0,1,1.352-2.581,4.977,4.977,0,0,1,3.413-1.189,5.094,5.094,0,0,1,3.081.929A3.324,3.324,0,0,1-1448.376,352.19Z" transform="translate(1463.886 -341.058)" fill="#0095ff"/></svg>