<svg xmlns="http://www.w3.org/2000/svg" width="24.009" height="24" viewBox="0 0 24.009 24"><g transform="translate(-1100.208 -91.261)"><g transform="translate(1112.207 95.261)"><path d="M24.007,17.276a1.027,1.027,0,0,1-.329.788q-2.878,2.823-5.743,5.657a.922.922,0,0,1-.692.279q-6.82-.005-13.64,0a.711.711,0,0,1-.8-.795c0-1.687,0-3.374,0-5.061,0-.178-.051-.244-.223-.3A3.647,3.647,0,0,1,.04,14.823.528.528,0,0,0,0,14.717v-8.2c.043-.18.078-.362.129-.539.018-.06.036-.119.056-.177C.193,5.772.2,5.746.212,5.72s.026-.071.039-.106.024-.063.037-.093A.13.13,0,0,1,.3,5.5C.3,5.48.314,5.458.324,5.436s.023-.054.036-.081A.119.119,0,0,1,.37,5.334C.385,5.3.4,5.27.416,5.238a.206.206,0,0,1,.01-.02c.018-.036.036-.071.056-.106s.035-.063.054-.095.052-.087.079-.129c.045-.069.091-.136.14-.2.025-.033.05-.066.076-.1S.878,4.532.9,4.5l.024-.028c.017-.021.036-.041.054-.06l.029-.031.044-.046L1.1,4.3l.057-.055.014-.014h0l.042-.038.068-.06.07-.058.03-.024.076-.059.063-.046.044-.031.08-.054.071-.045c.036-.023.073-.045.11-.066l.063-.035c.025-.015.051-.028.077-.041l.081-.041.009,0c.031-.016.063-.031.1-.046l.011-.006.09-.04c.116-.051.237-.1.362-.138a.238.238,0,0,0,.2-.278c0-.291,0-.582,0-.873,0-.368,0-.736,0-1.1,0-.038,0-.076,0-.115h0L3.328,0H23.487a.905.905,0,0,1,.521.944Q23.995,9.11,24.007,17.276Zm-5.94,4.232c0,.013.012.026.035.071l3.487-3.435H19.977c-.39,0-.781-.005-1.171,0a.7.7,0,0,0-.737.715C18.057,19.744,18.065,20.627,18.067,21.509ZM1.407,7.043q0,3.573,0,7.146a2.3,2.3,0,0,0,2.407,2.417q3.586,0,7.171,0a2.293,2.293,0,0,0,2.406-2.4q.009-3.585,0-7.17A2.3,2.3,0,0,0,10.97,4.632q-1.782,0-3.562,0t-3.586,0A2.3,2.3,0,0,0,1.407,7.043ZM22.581,1.421H4.229V3.226h.277q3.258,0,6.516,0A3.683,3.683,0,0,1,14.74,6.313a3.847,3.847,0,0,1,.057.7q.007,3.609,0,7.218a3.7,3.7,0,0,1-3.147,3.742,3.851,3.851,0,0,1-.654.04q-3.235,0-6.469,0H4.223v4.563H16.658V22.31c0-1.124,0-2.25,0-3.374a2.1,2.1,0,0,1,1.6-2.124,2.684,2.684,0,0,1,.626-.07c1.141-.006,2.281,0,3.422,0h.271Z" transform="translate(12.01 20) rotate(180)" fill="#858d97"/><rect width="13" height="13" rx="3" transform="translate(-2.207 2.739)" fill="#858d97"/><path d="M-1715.978,1497.686a15.978,15.978,0,0,1-1.331,1.444,4.744,4.744,0,0,1-3.2,1.319l-.017.065a12.753,12.753,0,0,1-1.493-.353,6.632,6.632,0,0,1-3.093-2.559.651.651,0,0,1,.04-.809,8.043,8.043,0,0,1,1.6-1.674,4.422,4.422,0,0,1,5-.587,7.221,7.221,0,0,1,2.546,2.308A.652.652,0,0,1-1715.978,1497.686Zm-4.752-2.267a2.816,2.816,0,0,0-1.279.419,6.313,6.313,0,0,0-1.612,1.393,5.613,5.613,0,0,0,2.034,1.6,2.732,2.732,0,0,0,2.314-.07,6.159,6.159,0,0,0,1.88-1.536C-1718.32,1496.257-1719.252,1495.341-1720.73,1495.419Z" transform="translate(1725.311 -1487.479)" fill="#fff"/><path d="M-1659.687,1535.88a.7.7,0,0,0-.7-.7.683.683,0,0,0-.7.695.69.69,0,0,0,.693.705A.716.716,0,0,0-1659.687,1535.88Z" transform="translate(1665.195 -1526.122)" fill="#fff"/></g></g></svg>