<svg xmlns="http://www.w3.org/2000/svg" xmlns:xlink="http://www.w3.org/1999/xlink" width="39" height="38" viewBox="0 0 39 38"><defs><filter id="a" x="0" y="0" width="39" height="38" filterUnits="userSpaceOnUse"><feOffset dy="3" input="SourceAlpha"/><feGaussianBlur stdDeviation="3" result="b"/><feFlood flood-opacity="0.161"/><feComposite operator="in" in2="b"/><feComposite in="SourceGraphic"/></filter></defs><g transform="translate(9.479 6.194)"><g transform="matrix(1, 0, 0, 1, -9.48, -6.19)" filter="url(#a)"><rect width="21" height="20" rx="2" transform="translate(9 6)" fill="#fff"/></g><g transform="translate(4.659 4.659)"><path d="M9,6.764V3h6.464V6.764" transform="translate(-6.849 -3)" fill="none" stroke="#353e3b" stroke-linecap="round" stroke-linejoin="round" stroke-width="0.5"/><path d="M5.153,18.34H4.077A1.076,1.076,0,0,1,3,17.264V14.576A1.076,1.076,0,0,1,4.077,13.5H12.69a1.076,1.076,0,0,1,1.077,1.076v2.689A1.076,1.076,0,0,1,12.69,18.34H11.613" transform="translate(-3 -9.729)" fill="none" stroke="#353e3b" stroke-linecap="round" stroke-linejoin="round" stroke-width="0.5"/><path d="M9,21h6.464v4.3H9Z" transform="translate(-6.849 -14.536)" fill="none" stroke="#353e3b" stroke-linecap="round" stroke-linejoin="round" stroke-width="0.5"/></g></g></svg>