<svg xmlns="http://www.w3.org/2000/svg" width="24" height="23.16" viewBox="0 0 24 23.16"><g transform="translate(34.68 23) rotate(180)"><path d="M1,0H6A0,0,0,0,1,6,0V5A0,0,0,0,1,6,5H0A0,0,0,0,1,0,5V1A1,1,0,0,1,1,0Z" transform="translate(34.68 4.84) rotate(180)" fill="#858d97"/><path d="M1,0H6A0,0,0,0,1,6,0V8A0,0,0,0,1,6,8H0A0,0,0,0,1,0,8V1A1,1,0,0,1,1,0Z" transform="translate(28.68 7.84) rotate(180)" fill="#858d97"/><path d="M1,0H6A0,0,0,0,1,6,0V11a0,0,0,0,1,0,0H0a0,0,0,0,1,0,0V1A1,1,0,0,1,1,0Z" transform="translate(22.68 10.84) rotate(180)" fill="#858d97"/><path d="M1,0H6A0,0,0,0,1,6,0V14a0,0,0,0,1,0,0H0a0,0,0,0,1,0,0V1A1,1,0,0,1,1,0Z" transform="translate(16.68 13.84) rotate(180)" fill="#858d97"/><path d="M-457.594,294.112v.29c0,2.885.006,5.77-.006,8.655a.9.9,0,0,0,.522.942h4.594c.666-.276.488-.886.525-1.406,1.364,0,2.7,0,4.036,0a.784.784,0,0,0,.793-.381.778.778,0,0,0-.135-.87c-.319-.462-.621-.936-.94-1.4a.245.245,0,0,1,0-.328c.341-.495.668-1,1-1.5a.7.7,0,0,0,.074-.771.717.717,0,0,0-.7-.383c-1.593,0-3.186,0-4.779,0a.712.712,0,0,0-.769.776c0,.207,0,.414,0,.617h-2.8v-4.253C-454.856,294.109-458.134,294.091-457.594,294.112Zm5.64,4.274h2.881c-.209.314-.4.6-.594.894a.744.744,0,0,0,0,1.008l.586.881h-2.876Zm-1.44,1.407v2.784h-2.783v-2.784Z" transform="translate(469 -281)" fill="#858d97"/></g></svg>