<svg xmlns="http://www.w3.org/2000/svg" xmlns:xlink="http://www.w3.org/1999/xlink" width="36" height="37" viewBox="0 0 36 37"><defs><filter id="a" x="0" y="0" width="36" height="37" filterUnits="userSpaceOnUse"><feOffset dy="3" input="SourceAlpha"/><feGaussianBlur stdDeviation="1.5" result="b"/><feFlood flood-opacity="0.102"/><feComposite operator="in" in2="b"/><feComposite in="SourceGraphic"/></filter></defs><g transform="translate(4.365 1.933)"><g transform="matrix(1, 0, 0, 1, -4.36, -1.93)" filter="url(#a)"><ellipse cx="13.5" cy="14" rx="13.5" ry="14" transform="translate(4.5 1.5)" fill="#fff"/></g><g transform="translate(4.349 2.958)"><path d="M-446.557-1038.013a9.064,9.064,0,0,1-4.479,2.3c-.348.073-.706.1-1.058.15-.061.009-.121.026-.181.039h-1.218c-.462-.07-.93-.117-1.387-.214a9.165,9.165,0,0,1-4.654-2.529,9.3,9.3,0,0,1-2.643-5,1.3,1.3,0,0,1,.861-1.585,1.3,1.3,0,0,1,1.645.9,13.218,13.218,0,0,0,.556,1.819,6.521,6.521,0,0,0,3.594,3.5,6.571,6.571,0,0,0,5.306-.044,6.727,6.727,0,0,0,3.535-3.511,6.451,6.451,0,0,0,.576-2.939,6.685,6.685,0,0,0-1.865-4.47,6.748,6.748,0,0,0-4.109-2.085c-.233-.033-.471-.033-.731-.051v.245c0,.721,0,1.443,0,2.164,0,.086-.041.214-.1.245a.319.319,0,0,1-.26-.061q-2.536-1.852-5.062-3.715c-.19-.14-.188-.229.006-.372q2.521-1.854,5.047-3.7a.352.352,0,0,1,.277-.064c.055.02.094.16.094.247.008.721,0,1.442,0,2.164v.21c.548.065,1.073.1,1.587.195a9.324,9.324,0,0,1,7.558,7.6A9.137,9.137,0,0,1-446.557-1038.013Z" transform="translate(462.209 1057.007)" fill="#858d97"/></g></g></svg>