<svg xmlns="http://www.w3.org/2000/svg" width="23.993" height="24" viewBox="0 0 23.993 24"><g transform="translate(-1080.094 -93.16)"><g transform="translate(1080.094 93.16)"><path d="M-1082.974,224.745a3.707,3.707,0,0,1,.916-1.555c.656-.667,1.313-1.333,1.984-1.984a3.854,3.854,0,0,1,2.19-1.064,1.331,1.331,0,0,0,.156-.042h16.167a6.69,6.69,0,0,1,1.193.5,2.614,2.614,0,0,1,1.2,2.307q0,7.413,0,14.826,0,1.768,0,3.536a2.748,2.748,0,0,1-2.825,2.825c-6.09,0-12.179-.01-18.269.008a2.785,2.785,0,0,1-2.863-2.34c0-.02-.023-.038-.036-.057V225.536C-1083.1,225.272-1083.053,225-1082.974,224.745Zm19.809,1.433q0-1.1,0-2.2a.771.771,0,0,0-.875-.878H-1074.3a.761.761,0,0,0-.865.859q0,1.135,0,2.271a.756.756,0,0,0,.857.864q2.576,0,5.151,0h5.08C-1063.438,227.093-1063.166,226.818-1063.166,226.178Zm-8.013,13.919a4.51,4.51,0,0,0,4.51-4.491,4.492,4.492,0,0,0-4.486-4.505,4.492,4.492,0,0,0-4.51,4.482A4.507,4.507,0,0,0-1071.179,240.1Z" transform="translate(1083.163 -220.1)" fill="#858d97"/></g></g></svg>