<svg xmlns="http://www.w3.org/2000/svg" width="71.277" height="55.345" viewBox="0 0 71.277 55.345"><path d="M-925.794,903.8a1.011,1.011,0,0,0,1.292-.52c.021-.035.073-.047.11-.07V885.255c-.83-1.946-1.463-2.363-3.6-2.363h-4.22V882q-.005-7.307-.014-14.617a3.214,3.214,0,0,0-3.538-3.543q-24.256.018-48.511.045c-2.392,0-3.6,1.219-3.6,3.592q0,7.308,0,14.615v.776a1.993,1.993,0,0,1-.251.044q-2.124.008-4.246.012c-2.2.009-3.3,1.112-3.3,3.294q0,8.212,0,16.425,0,6.683,0,13.363a2.738,2.738,0,0,0,1.243,2.631,4.674,4.674,0,0,0,2.174.541q21.959.029,43.917-.014,10.336-.008,20.672-.021a2.947,2.947,0,0,0,2.312-.741,10.418,10.418,0,0,0,.954-1.405v-9.885c-.371-.422-.741-.851-1.4-.6s-.7.79-.694,1.374c.007,2.622,0,5.243,0,7.865,0,1.149-.138,1.294-1.269,1.3q-32.261.031-64.521.057c-1.107,0-1.3-.188-1.3-1.29q-.005-14.756-.01-29.512c0-1.112.173-1.285,1.29-1.287l64.592-.036c1.006,0,1.2.206,1.2,1.234q.005,5.4.005,10.788c0,1.857.005,3.714,0,5.569C-926.492,903.124-926.37,903.6-925.794,903.8Zm-8.542-20.936H-985.78V880.38q0-6.437-.005-12.871c0-1.221.3-1.533,1.512-1.534q24.214-.024,48.427-.042c1.2,0,1.536.335,1.538,1.529q.008,7.375.007,14.751C-934.3,882.417-934.323,882.62-934.336,882.868Z" transform="translate(995.67 -863.84)" fill="#353e3b"/><path d="M-741.73,1011.211c0-1.857-.875-2.741-2.724-2.741q-9.779,0-19.556.019c-1.85,0-2.71.886-2.71,2.748q0,9.222.012,18.444a2.369,2.369,0,0,0,2.689,2.69q4.907.005,9.813,0v-.007q4.836,0,9.674,0c1.948,0,2.819-.854,2.818-2.783Q-741.715,1020.4-741.73,1011.211Zm-2.87,19.08q-9.635-.037-19.269,0c-.56,0-.762-.136-.76-.731q.024-9.112-.014-18.224c0-.642.223-.771.806-.766,3.2.023,6.4.01,9.6.01v-.021c3.2,0,6.4.014,9.6-.012.628-.005.835.159.832.814q-.029,9.044.012,18.085C-743.795,1030.056-743.92,1030.295-744.6,1030.291Z" transform="translate(806.64 -983.252)" fill="#0095ff"/><path d="M-934.247,1030.155a2.3,2.3,0,0,1-2.579,2.511c-3.294.007-6.589,0-9.883,0v.01q-4.907,0-9.815,0c-1.855,0-2.708-.858-2.71-2.731q-.013-9.188-.017-18.376c0-1.906.853-2.748,2.769-2.75q9.709-.008,19.419-.012c1.995,0,2.805.825,2.807,2.844,0,.556.01,1.114-.012,1.669a.97.97,0,0,1-.949,1.01.982.982,0,0,1-1.091-.933,9.322,9.322,0,0,1-.026-1.737c.052-.626-.181-.779-.785-.778-5.175.026-10.348.019-15.522.023-1.254,0-2.507.026-3.759-.007-.551-.016-.771.119-.769.724q.037,9.151.017,18.3c0,.521.16.673.677.671q9.745-.029,19.488-.007c.621,0,.659-.282.657-.759-.014-3.874-.01-7.75-.014-11.625,0-.185,0-.371,0-.556.021-.877.4-1.341,1.078-1.33.656.01,1.011.45,1.013,1.3C-934.245,1021.8-934.236,1025.979-934.247,1030.155Z" transform="translate(965.6 -983.533)" fill="#0095ff"/><path d="M-900.7,1049.484c.005.645-.357.945-1.158.947-1.576,0-3.154.007-4.73,0-1.085,0-1.25-.242-1.337-1.288a4.167,4.167,0,0,1,1.941-3.833c.792-.6,1.569-1.226,2.326-1.871a2.69,2.69,0,0,0,.584-.771,1.494,1.494,0,0,0-.092-1.7,1.419,1.419,0,0,0-1.5-.493,1.273,1.273,0,0,0-1.1,1.17c-.145.814-.555,1.116-1.271,1.015-.563-.078-.79-.457-.76-1.268a2.943,2.943,0,0,1,2.7-2.722,4.927,4.927,0,0,1,2.18.2c2.476.861,2.95,3.712.929,5.677-.84.818-1.864,1.444-2.785,2.183-.551.443-1.168.872-1.057,1.84,1.351,0,2.647,0,3.942,0C-901.045,1048.577-900.7,1048.84-900.7,1049.484Z" transform="translate(923.238 -1008.156)" fill="#0095ff"/><path d="M-795.19,1092.276a1.065,1.065,0,0,1-1.065,1.055,1.056,1.056,0,0,1-1.046-1.071,1.056,1.056,0,0,1,1.027-1.022A1.064,1.064,0,0,1-795.19,1092.276Z" transform="translate(831.89 -1051.589)" fill="#0095ff"/><path d="M-795.232,1046.73a1.074,1.074,0,0,1-1.071,1.053,1.074,1.074,0,0,1-1.039-1.083,1.053,1.053,0,0,1,1.034-1.011A1.054,1.054,0,0,1-795.232,1046.73Z" transform="translate(831.923 -1013.981)" fill="#0095ff"/><path d="M-753.06,899.107c-.624-1.161-1.254-2.321-1.9-3.51a1.141,1.141,0,0,1,.152-.131,3.4,3.4,0,0,0,1.822-4.122c-.319-1.494-1.357-2.307-3.144-2.385-1.179-.054-2.361-.049-3.543-.044-.743,0-.935.207-.935.975q-.005,4.9.014,9.8c0,.762.3,1.046,1.051,1.044s1.046-.291,1.06-1.046c.007-.37,0-.741,0-1.112v-2.656c1.3-.166,1.3-.166,1.82.844.572,1.111,1.135,2.225,1.716,3.332.384.732.82.888,1.454.553C-752.8,900.285-752.672,899.825-753.06,899.107Zm-3.193-4.987c-.7.077-1.416.075-2.181.112v-3.412a21.474,21.474,0,0,1,2.255.016c.8.087,1.215.734,1.2,1.679C-755,893.478-755.408,894.029-756.252,894.12Z" transform="translate(801.591 -884.541)" fill="#0095ff"/><path d="M-806.968,892.2a3.076,3.076,0,0,0-2.9-3.088,7.682,7.682,0,0,0-1.388-.023,3.114,3.114,0,0,0-3.2,3.166c-.078,1.827-.075,3.663,0,5.491a3.056,3.056,0,0,0,2.846,3.147,6.654,6.654,0,0,0,1.665.021,3.09,3.09,0,0,0,2.98-3.086c.056-.924.01-1.853.009-2.779C-806.958,894.1-806.909,893.151-806.968,892.2Zm-2.117,5.541a1.406,1.406,0,0,1-1.594,1.377c-.936.014-1.575-.4-1.608-1.264-.07-1.892-.077-3.789,0-5.681.035-.9.677-1.3,1.662-1.266.936.033,1.486.469,1.54,1.351.058.922.012,1.85.012,2.776h0C-809.073,895.941-809.031,896.845-809.085,897.745Z" transform="translate(846.104 -884.673)" fill="#0095ff"/><path d="M-700.278,899.958a.746.746,0,0,1-.806.7c-1.855,0-3.712.01-5.567,0-.624-.005-.964-.277-.959-.983.023-3.273.007-6.544.009-9.815,0-.774.194-1.006.976-1.018,1.833-.026,3.667-.014,5.5-.017.631,0,.865.387.858.943a.813.813,0,0,1-.9.915c-1.412-.005-2.825,0-4.286,0v3.229c.7,0,1.414.014,2.124,0,.6-.016.928.237.919.854-.007.584-.337.82-.894.813-.7-.009-1.39,0-2.141,0V898.8c1.411,0,2.8-.007,4.185,0C-700.484,898.811-700.146,899.231-700.278,899.958Z" transform="translate(757.837 -884.464)" fill="#0095ff"/><path d="M-909.008,897.662a3.252,3.252,0,0,1-2.973,2.511,5.108,5.108,0,0,1-3.834-.847,1.206,1.206,0,0,1-.6-1.482c.275-.741.849-.921,1.447-.408a3.057,3.057,0,0,0,2.452.921c.661-.084,1.238-.3,1.423-1.013a1.4,1.4,0,0,0-.715-1.658c-.861-.5-1.766-.912-2.645-1.376a3.016,3.016,0,0,1-1.663-2.024,3.131,3.131,0,0,1,2.526-3.951c.448-.1.914-.131,1.6-.223a19.115,19.115,0,0,1,2.131.577.923.923,0,0,1,.511,1.369c-.274.614-.685.556-1.255.391a8.648,8.648,0,0,0-2.225-.33,1.133,1.133,0,0,0-1.238.99c-.108.67.321,1.039.825,1.308.835.446,1.714.813,2.541,1.275A3.492,3.492,0,0,1-909.008,897.662Z" transform="translate(930.299 -883.878)" fill="#0095ff"/><path d="M-859.791,900.5a4.841,4.841,0,0,1-3.782.192,2.8,2.8,0,0,1-1.99-2.446c-.122-1.078-.117-2.171-.167-3.257l.087,0c0-.928-.065-1.859.014-2.778a3.159,3.159,0,0,1,3.257-3.125,4.655,4.655,0,0,1,3.05.7,2.738,2.738,0,0,1,1.231,2.22c.044.72-.214,1.062-.823,1.132-.807.091-1.165-.139-1.32-.849-.228-1.039-.664-1.4-1.656-1.379-1.032.026-1.562.417-1.608,1.5-.071,1.8-.044,3.608.031,5.409.037.893.635,1.285,1.651,1.3a1.381,1.381,0,0,0,1.569-1.315c.174-.9.4-1.081,1.212-1.06a.886.886,0,0,1,.954.954A2.941,2.941,0,0,1-859.791,900.5Z" transform="translate(888.387 -884.666)" fill="#0095ff"/><path d="M-705.829,1049.393c0,.683-.34.989-1.046,1s-1.046-.286-1.048-.973c-.009-2.459-.007-4.915-.009-7.374,0-.251,0-.5,0-.9-.507.4-.884.907-1.395.317-.37-.424-.206-.989.41-1.473a14.936,14.936,0,0,1,1.616-1.2,1.269,1.269,0,0,1,1.011-.1,1.08,1.08,0,0,1,.439.832C-705.818,1042.809-705.823,1046.1-705.829,1049.393Z" transform="translate(759.415 -1008.145)" fill="#0095ff"/></svg>