<svg xmlns="http://www.w3.org/2000/svg" width="40" height="40" viewBox="0 0 40 40"><g transform="translate(-1180 -10)"><circle cx="20" cy="20" r="20" transform="translate(1180 10)" fill="#858d97"/><path d="M9.422,10.6a5.3,5.3,0,1,0-5.3-5.3A5.3,5.3,0,0,0,9.422,10.6Zm4.711,1.178H12.1a6.407,6.407,0,0,1-5.366,0H4.711A4.711,4.711,0,0,0,0,16.488v.589a1.767,1.767,0,0,0,1.767,1.767H17.077a1.767,1.767,0,0,0,1.767-1.767v-.589A4.711,4.711,0,0,0,14.133,11.777Z" transform="translate(1191 21)" fill="#fff"/></g></svg>